<svg width="33" height="24" viewBox="0 0 33 24" fill="none" xmlns="http://www.w3.org/2000/svg">
<g filter="url(#filter0_d_96_8300)">
<path d="M18.934 18.9055L18.9342 18.9057C19.3552 19.3162 19.8456 19.6339 20.3784 19.849L17.3216 22.8308C17.3216 22.8308 17.3216 22.8308 17.3216 22.8309C16.3148 23.8129 14.6724 23.8129 13.6657 22.8308L13.6657 22.8308L10.697 19.935C11.3051 19.7219 11.8642 19.3784 12.3361 18.9183L12.3363 18.9181L15.6416 15.6937L18.934 18.9055Z" stroke="white" stroke-width="2"/>
<path d="M17.3219 2.16886L20.3776 5.14792C19.8453 5.36282 19.3552 5.68021 18.9343 6.09026L18.9341 6.09046L15.6413 9.30085L12.336 6.07791L12.3357 6.07767C11.8641 5.61808 11.3053 5.2749 10.6977 5.06195L13.6653 2.16883L13.6654 2.1688C14.6721 1.18726 16.3148 1.18718 17.3219 2.16882C17.3219 2.16883 17.3219 2.16885 17.3219 2.16886ZM15.8762 9.52983L15.8758 9.52948C15.876 9.52962 15.8761 9.52977 15.8763 9.52992L15.8762 9.52983Z" stroke="white" stroke-width="2"/>
<mask id="path-3-inside-1_96_8300" fill="white">
<path d="M27.4321 10.5915L24.6692 8.01028C24.6084 8.03304 24.5425 8.04725 24.4729 8.04725H23.2167C22.5672 8.04725 21.9315 8.29335 21.4725 8.7224L17.8729 12.0853C17.5361 12.4001 17.0934 12.5575 16.6512 12.5575C16.2086 12.5575 15.7663 12.4001 15.4295 12.0856L11.8163 8.7101C11.3574 8.28096 10.7216 8.03496 10.0721 8.03496H8.52745C8.46156 8.03496 8.4 8.02045 8.34187 8L5.56793 10.5915C4.14402 11.9217 4.14402 14.0784 5.56793 15.4086L8.34176 18C8.39999 17.9796 8.46156 17.965 8.52745 17.965H10.0721C10.7216 17.965 11.3574 17.719 11.8163 17.29L15.4292 13.9148C16.0822 13.3052 17.2206 13.305 17.8729 13.915L21.4725 17.2777C21.9315 17.7067 22.5672 17.9528 23.2167 17.9528H24.4729C24.5425 17.9528 24.6084 17.967 24.6692 17.9898L27.4321 15.4086C28.8559 14.0783 28.8559 11.9217 27.4321 10.5915"/>
</mask>
<path d="M24.6692 8.01028L26.0345 6.54882L25.1289 5.70279L23.9682 6.13714L24.6692 8.01028ZM21.4725 8.7224L22.8379 10.1838L22.8384 10.1834L21.4725 8.7224ZM17.8729 12.0853L19.2383 13.5468L19.2383 13.5468L17.8729 12.0853ZM15.4295 12.0856L14.0642 13.5471L14.0646 13.5475L15.4295 12.0856ZM11.8163 8.7101L10.4503 10.1709L10.451 10.1716L11.8163 8.7101ZM8.34187 8L9.00573 6.11339L7.8623 5.71104L6.97654 6.53854L8.34187 8ZM5.56793 10.5915L6.93326 12.053L6.93326 12.053L5.56793 10.5915ZM5.56793 15.4086L6.93326 13.9472L6.93326 13.9471L5.56793 15.4086ZM8.34176 18L6.97643 19.4615L7.86152 20.2883L9.00437 19.8871L8.34176 18ZM11.8163 17.29L10.4509 15.8285L10.4504 15.829L11.8163 17.29ZM15.4292 13.9148L14.0644 12.4527L14.0638 12.4533L15.4292 13.9148ZM17.8729 13.915L16.5069 15.3758L16.5076 15.3765L17.8729 13.915ZM21.4725 17.2777L22.8384 15.8167L22.8378 15.8162L21.4725 17.2777ZM24.6692 17.9898L23.9677 19.8628L25.1286 20.2976L26.0345 19.4513L24.6692 17.9898ZM27.4321 15.4086L28.7975 16.8701L28.7975 16.87L27.4321 15.4086ZM28.7975 9.13004L26.0345 6.54882L23.3039 9.47174L26.0668 12.053L28.7975 9.13004ZM23.9682 6.13714C24.0954 6.08956 24.2673 6.04725 24.4729 6.04725V10.0472C24.8177 10.0472 25.1214 9.97651 25.3702 9.88342L23.9682 6.13714ZM24.4729 6.04725H23.2167V10.0472H24.4729V6.04725ZM23.2167 6.04725C22.079 6.04725 20.9497 6.47331 20.1067 7.26142L22.8384 10.1834C22.9132 10.1134 23.0555 10.0472 23.2167 10.0472V6.04725ZM20.1072 7.26096L16.5076 10.6239L19.2383 13.5468L22.8379 10.1838L20.1072 7.26096ZM16.5076 10.6239C16.57 10.5655 16.6275 10.5575 16.6512 10.5575V14.5575C17.5594 14.5575 18.5021 14.2346 19.2383 13.5468L16.5076 10.6239ZM16.6512 10.5575C16.6745 10.5575 16.732 10.5655 16.7944 10.6238L14.0646 13.5475C14.8005 14.2346 15.7427 14.5575 16.6512 14.5575V10.5575ZM16.7948 10.6242L13.1816 7.24864L10.451 10.1716L14.0642 13.5471L16.7948 10.6242ZM13.1823 7.24928C12.3391 6.46079 11.2096 6.03496 10.0721 6.03496V10.035C10.2336 10.035 10.3756 10.1011 10.4503 10.1709L13.1823 7.24928ZM10.0721 6.03496H8.52745V10.035H10.0721V6.03496ZM8.52745 6.03496C8.75803 6.03496 8.92896 6.08638 9.00573 6.11339L7.67802 9.88661C7.87103 9.95453 8.1651 10.035 8.52745 10.035V6.03496ZM6.97654 6.53854L4.20259 9.13004L6.93326 12.053L9.70721 9.46146L6.97654 6.53854ZM4.2026 9.13004C1.93247 11.2509 1.93247 14.7493 4.2026 16.8701L6.93326 13.9471C6.35558 13.4075 6.35558 12.5926 6.93326 12.053L4.2026 9.13004ZM4.20259 16.8701L6.97643 19.4615L9.7071 16.5385L6.93326 13.9472L4.20259 16.8701ZM9.00437 19.8871C8.92878 19.9136 8.75808 19.965 8.52745 19.965V15.965C8.16504 15.965 7.8712 16.0455 7.67916 16.113L9.00437 19.8871ZM8.52745 19.965H10.0721V15.965H8.52745V19.965ZM10.0721 19.965C11.2096 19.965 12.339 19.5392 13.1821 18.751L10.4504 15.829C10.3757 15.8989 10.2336 15.965 10.0721 15.965V19.965ZM13.1816 18.7515L16.7945 15.3762L14.0638 12.4533L10.451 15.8285L13.1816 18.7515ZM16.7939 15.3768C16.7446 15.4228 16.7018 15.4428 16.6806 15.4506C16.6605 15.4579 16.6515 15.4575 16.6512 15.4575C16.651 15.4575 16.6417 15.4579 16.6213 15.4504C16.5998 15.4426 16.5565 15.4222 16.5069 15.3758L19.239 12.4542C17.8172 11.1247 15.4853 11.1265 14.0644 12.4527L16.7939 15.3768ZM16.5076 15.3765L20.1072 18.7392L22.8378 15.8162L19.2382 12.4535L16.5076 15.3765ZM20.1067 18.7387C20.9497 19.5268 22.079 19.9528 23.2167 19.9528V15.9528C23.0555 15.9528 22.9132 15.8867 22.8384 15.8167L20.1067 18.7387ZM23.2167 19.9528H24.4729V15.9528H23.2167V19.9528ZM24.4729 19.9528C24.2676 19.9528 24.0955 19.9106 23.9677 19.8628L25.3707 16.1169C25.1212 16.0234 24.8174 15.9528 24.4729 15.9528V19.9528ZM26.0345 19.4513L28.7975 16.8701L26.0668 13.9471L23.3039 16.5284L26.0345 19.4513ZM28.7975 16.87C31.0675 14.7492 31.0675 11.2509 28.7975 9.13007L26.0668 12.0529C26.6444 12.5926 26.6444 13.4075 26.0668 13.9472L28.7975 16.87Z" fill="white" mask="url(#path-3-inside-1_96_8300)"/>
</g>
<defs>
<filter id="filter0_d_96_8300" x="0.5" y="0.432617" width="32" height="32.1348" filterUnits="userSpaceOnUse" color-interpolation-filters="sRGB">
<feFlood flood-opacity="0" result="BackgroundImageFix"/>
<feColorMatrix in="SourceAlpha" type="matrix" values="0 0 0 0 0 0 0 0 0 0 0 0 0 0 0 0 0 0 127 0" result="hardAlpha"/>
<feOffset dy="4"/>
<feGaussianBlur stdDeviation="2"/>
<feComposite in2="hardAlpha" operator="out"/>
<feColorMatrix type="matrix" values="0 0 0 0 0 0 0 0 0 0 0 0 0 0 0 0 0 0 0.25 0"/>
<feBlend mode="normal" in2="BackgroundImageFix" result="effect1_dropShadow_96_8300"/>
<feBlend mode="normal" in="SourceGraphic" in2="effect1_dropShadow_96_8300" result="shape"/>
</filter>
</defs>
</svg>
