<svg width="33" height="33" viewBox="0 0 33 33" fill="none" xmlns="http://www.w3.org/2000/svg">
    <path d="M17.1737 26.9825L27.2987 16.8575C29.7862 14.3575 30.1487 10.27 27.7987 7.65755C27.2093 6.99918 26.4919 6.4679 25.6903 6.09615C24.8887 5.7244 24.0197 5.52 23.1364 5.49543C22.2531 5.47087 21.3741 5.62665 20.5531 5.95326C19.732 6.27987 18.9862 6.77046 18.3612 7.39505L16.4612 9.30755L14.8237 7.65755C12.3237 5.17005 8.23617 4.80755 5.62367 7.15755C4.96531 7.7469 4.43402 8.46431 4.06228 9.26592C3.69053 10.0675 3.48613 10.9365 3.46156 11.8198C3.43699 12.7031 3.59277 13.5821 3.91939 14.4031C4.246 15.2242 4.73659 15.97 5.36117 16.595L15.7487 26.9825C15.9383 27.1703 16.1943 27.2757 16.4612 27.2757C16.728 27.2757 16.9841 27.1703 17.1737 26.9825V26.9825Z" stroke="#D9D9D9" stroke-width="2" stroke-linecap="round" stroke-linejoin="round" />
</svg>
    